<svg id="Group_23164" data-name="Group 23164" xmlns="http://www.w3.org/2000/svg" width="90" height="72" viewBox="0 0 90 72">
  <path id="Path_134122" data-name="Path 134122" d="M72.366,32.914l-7.75-3.073a1.287,1.287,0,0,1-.774-.875,27.8,27.8,0,0,0-3.12-7.424,1.273,1.273,0,0,1-.078-1.164l3.3-7.621c-.635-.741-1.33-1.492-2.074-2.239-.745-.729-1.5-1.416-2.248-2.044l-7.689,3.271a1.3,1.3,0,0,1-1.174-.077,28.313,28.313,0,0,0-7.49-3.093,1.292,1.292,0,0,1-.883-.767L39.288.127a37.9,37.9,0,0,0-6.106,0l-3.1,7.682a1.291,1.291,0,0,1-.883.767,28.317,28.317,0,0,0-7.49,3.093,1.3,1.3,0,0,1-1.174.077L12.846,8.474c-.748.629-1.506,1.318-2.259,2.056-.735.738-1.428,1.487-2.063,2.228l3.3,7.622a1.273,1.273,0,0,1-.078,1.164,27.793,27.793,0,0,0-3.12,7.424,1.288,1.288,0,0,1-.774.875L.1,32.914c-.049.568-.083,1.151-.1,1.743H11.665A24.6,24.6,0,1,1,37.53,60.294V71.857c.6-.02,1.185-.054,1.758-.1l3.1-7.682a1.291,1.291,0,0,1,.883-.767,28.317,28.317,0,0,0,7.49-3.093,1.3,1.3,0,0,1,1.174-.077l7.689,3.271c.748-.629,1.506-1.318,2.259-2.056.737-.741,1.43-1.489,2.063-2.228l-3.3-7.621a1.273,1.273,0,0,1,.078-1.164,27.793,27.793,0,0,0,3.12-7.424,1.288,1.288,0,0,1,.774-.875l7.75-3.073c.083-.975.125-1.989.125-3.026S72.449,33.889,72.366,32.914Z" transform="translate(17.509 -0.004)" fill="red" opacity="0.4"/>
  <g id="transportation" transform="translate(0 27.036)">
    <g id="Group_22652" data-name="Group 22652" transform="translate(0 12.379)">
      <path id="Path_136642" data-name="Path 136642" d="M85.413,378.2h-4.76a2.881,2.881,0,0,1-2.882-2.882v-4.253H88.3v4.253a2.882,2.882,0,0,1-2.882,2.882" transform="translate(-67.264 -345.617)" fill="#474747"/>
      <path id="Path_136643" data-name="Path 136643" d="M370.362,378.2H365.6a2.881,2.881,0,0,1-2.882-2.882v-4.253h10.524v4.253a2.882,2.882,0,0,1-2.882,2.882" transform="translate(-313.715 -345.617)" fill="#474747"/>
      <path id="Path_136644" data-name="Path 136644" d="M9.638,185.931H3.087a3.085,3.085,0,1,1,0-6.171H6.554a3.085,3.085,0,0,1,3.085,3.085v3.085h0Z" transform="translate(0 -179.76)" fill="#474747"/>
      <path id="Path_136645" data-name="Path 136645" d="M440.661,185.932h6.553a3.085,3.085,0,1,0,0-6.171h-3.466a3.087,3.087,0,0,0-3.087,3.085v3.085Z" transform="translate(-381.126 -179.761)" fill="#474747"/>
    </g>
    <path id="Path_136646" data-name="Path 136646" d="M107.637,88.133H80.511a8.384,8.384,0,0,0-7.906,5.594l-3.826,10.85h50.59l-3.826-10.85a8.384,8.384,0,0,0-7.906-5.594" transform="translate(-59.487 -88.133)" fill="red"/>
    <path id="Path_136647" data-name="Path 136647" d="M103.563,124.351l2.717-8.51a6.076,6.076,0,0,1,5.655-4.423h24.449a6.076,6.076,0,0,1,5.655,4.423l2.715,8.51Z" transform="translate(-89.571 -108.272)" fill="#f2f2f2"/>
    <path id="Path_136648" data-name="Path 136648" d="M86.859,230.095H43.814a8.262,8.262,0,0,1-8.262-8.26v-2.959c0-4.563,1.969-11.723,6.531-11.723h46.5c4.563,0,6.531,7.161,6.531,11.723v2.959a8.261,8.261,0,0,1-8.26,8.26" transform="translate(-30.749 -191.469)" fill="red"/>
    <g id="Group_22653" data-name="Group 22653" transform="translate(10.689 22.16)">
      <path id="Path_136649" data-name="Path 136649" d="M367.136,259.17A5.136,5.136,0,1,1,362,254.032a5.137,5.137,0,0,1,5.136,5.138" transform="translate(-319.339 -254.032)" fill="#fff"/>
      <path id="Path_136650" data-name="Path 136650" d="M89.387,259.17a5.136,5.136,0,1,1-5.136-5.138,5.137,5.137,0,0,1,5.136,5.138" transform="translate(-79.115 -254.032)" fill="#fff"/>
    </g>
  </g>
</svg>
